<svg width="144" height="24" viewBox="0 0 144 24" fill="none" xmlns="http://www.w3.org/2000/svg">
<path d="M8.48412 0.500601H0.896435C0.384186 0.500601 0 0.916804 0 1.39704C0 1.62114 0.064031 1.81324 0.192093 1.97332L1.40868 3.44603V20.7664L0.192093 22.2071C0.064031 22.3672 0 22.5593 0 22.7834C0 23.2636 0.384186 23.6798 0.896435 23.6798H7.39559C7.90784 23.6798 8.29202 23.2636 8.29202 22.7834C8.29202 22.5593 8.22799 22.3672 8.09993 22.2071L6.85132 20.7664V14.7795H8.48412C13.4145 14.7795 17.8967 13.2428 17.8967 7.64006C17.8967 2.03735 13.4145 0.500601 8.48412 0.500601ZM7.39559 12.2183C7.10745 12.2183 6.85132 11.9942 6.85132 11.706V3.06184H7.39559C10.9813 3.06184 12.1339 4.66262 12.1339 7.64006C12.1339 10.6175 10.9813 12.2183 7.39559 12.2183Z" fill="white"/>
<path d="M34.1638 18.0131C33.8116 17.821 33.3634 17.917 33.1393 18.2052C32.467 19.0056 31.0583 20.4143 29.0093 20.4143C26.6722 20.4143 25.1354 19.1016 24.207 17.4048L33.6836 13.9151L33.7156 13.8831C34.1958 13.723 34.452 13.1788 34.2919 12.6985C32.9792 8.69658 30.2259 6.93572 27.2165 6.93572C22.094 6.93572 18.5402 10.4894 18.5402 15.4839C18.5402 20.4783 21.7738 24 26.8963 24C31.5385 24 33.7476 20.7024 34.548 19.1336C34.7721 18.7174 34.58 18.2052 34.1638 18.0131ZM24.8793 9.11278C26.4161 8.60053 28.2409 9.81712 29.6496 13.4989L23.5667 15.772C22.7343 12.8906 23.3106 9.65704 24.8793 9.11278Z" fill="white"/>
<path d="M46.9042 20.6064C46.6481 20.3182 46.1999 20.2862 45.8477 20.5103C45.5596 20.7024 45.1754 20.8625 44.7592 20.8625C43.7027 20.8625 43.1904 20.0621 43.1904 18.9095V8.69658L45.6236 8.72859C46.1039 8.72859 46.488 8.34441 46.488 7.83216C46.488 7.35192 46.1039 6.96774 45.6236 6.96774L43.1904 6.93572C43.1904 4.91874 43.1904 3.44603 43.1904 3.44603C43.1904 3.12588 43.0304 2.83774 42.7422 2.70967C42.3901 2.5496 41.9739 2.67766 41.7497 2.9658C41.0134 3.99029 39.5407 5.62309 36.6273 6.6796C36.2431 6.83968 35.9549 7.22386 35.9549 7.64006C35.9549 8.21634 36.4352 8.66456 36.9794 8.69658H37.7478V19.9981C37.7478 22.6553 39.7328 24 41.5577 24C44.2149 24 46.0398 22.5913 46.9042 21.7589C47.2244 21.4708 47.2244 20.9585 46.9363 20.6384L46.9042 20.6064Z" fill="white"/>
<path d="M63.7727 18.0131C63.3885 17.821 62.9723 17.917 62.7162 18.2052C62.0438 19.0056 60.6352 20.4143 58.5862 20.4143C52.055 20.4143 51.6708 8.9527 55.3206 8.9527C56.4731 8.9527 57.4976 9.72107 58.6182 12.5705C59.1624 14.0112 60.7632 14.7155 62.1719 14.1712C63.9007 13.5629 64.5731 11.4499 63.5166 9.9772C61.9478 7.76813 59.5786 6.93572 56.8253 6.93572C51.6708 6.93572 48.1171 10.4894 48.1171 15.4839C48.1171 20.4783 51.3507 24 56.5052 24C61.1154 24 63.3565 20.7024 64.1249 19.1336C64.349 18.7174 64.1889 18.2052 63.7727 18.0131Z" fill="white"/>
<path d="M81.5953 20.7664V13.3388C81.5953 8.44045 78.3938 6.93572 74.0076 6.93572C71.4784 6.93572 68.8852 7.86417 67.5085 9.75309C66.484 11.0977 67.4765 13.0187 69.1733 13.0187C70.1978 13.0187 71.0622 12.2503 71.1903 11.2578C71.4144 9.72107 71.9907 8.37642 73.4634 8.37642C74.84 8.37642 76.1527 9.49697 76.1527 12.4744V13.4989C73.1432 13.8831 65.8757 15.3238 65.8757 19.7419C65.8757 22.5593 68.1808 24 71.0942 24C73.2073 24 74.9681 22.9115 76.2167 21.8229C76.4088 22.8795 77.3693 23.6798 78.4898 23.6798H82.1396C82.6198 23.6798 83.036 23.2636 83.036 22.7834C83.036 22.5593 82.972 22.3672 82.8119 22.2071L81.5953 20.7664ZM71.6385 19.1977C71.6385 16.3483 74.1357 15.1957 76.1527 14.8756V20.0941C75.3843 20.8305 74.3918 21.5028 73.4634 21.5028C72.2148 21.5028 71.6385 20.7344 71.6385 19.1977Z" fill="white"/>
<path d="M95.2715 20.6064C95.0153 20.3182 94.5671 20.2862 94.2149 20.5103C93.9268 20.7024 93.5426 20.8625 93.1264 20.8625C92.0699 20.8625 91.5577 20.0621 91.5577 18.9095V8.69658L93.9908 8.72859C94.4711 8.72859 94.8553 8.34441 94.8553 7.83216C94.8553 7.35192 94.4711 6.96774 93.9908 6.96774L91.5577 6.93572C91.5577 4.91874 91.5577 3.44603 91.5577 3.44603C91.5577 3.12588 91.3976 2.83774 91.1094 2.70967C90.7573 2.5496 90.3411 2.67766 90.117 2.9658C89.3806 3.99029 87.9079 5.62309 84.9945 6.6796C84.6103 6.83968 84.3221 7.22386 84.3221 7.64006C84.3221 8.21634 84.8024 8.66456 85.3466 8.69658H86.115V19.9981C86.115 22.6553 88.1 24 89.9249 24C92.5822 24 94.407 22.5913 95.2715 21.7589C95.5916 21.4708 95.5916 20.9585 95.3035 20.6384L95.2715 20.6064Z" fill="white"/>
<path d="M103.712 20.7664V8.1203C103.712 7.73611 103.519 7.35192 103.167 7.12782C102.879 6.90371 102.495 6.87169 102.143 6.96774L98.2689 8.15231L97.5646 8.34441C97.1163 8.50448 96.8282 8.88867 96.8282 9.33689C96.8282 9.62503 96.9563 9.91317 97.1804 10.1053L98.2689 11.0657V20.7664L97.0523 22.2071C96.8922 22.3672 96.8282 22.5593 96.8282 22.7834C96.8282 23.2636 97.2444 23.6798 97.7246 23.6798H104.224C104.736 23.6798 105.12 23.2636 105.12 22.7834C105.12 22.5593 105.056 22.3672 104.928 22.2071L103.712 20.7664ZM101.342 5.94324C103.103 5.52704 104.192 3.89425 103.84 2.29347C103.455 0.660679 101.727 -0.299788 99.9977 0.0843992C98.2369 0.500601 97.1484 2.13339 97.5326 3.76619C97.8847 5.36696 99.6136 6.35944 101.342 5.94324Z" fill="white"/>
<path d="M115.415 6.93572C110.293 6.93572 106.739 10.4894 106.739 15.4839C106.739 20.4783 110.293 24 115.415 24C120.57 24 124.124 20.4783 124.124 15.4839C124.124 10.4894 120.57 6.93572 115.415 6.93572ZM116.6 22.1431C114.679 22.4953 113.398 20.8305 112.534 15.9961C111.67 11.1618 112.31 9.14479 114.231 8.82464C116.184 8.47247 117.464 10.1373 118.329 14.9716C119.161 19.806 118.553 21.7909 116.6 22.1431Z" fill="white"/>
<path d="M142.237 20.7664V13.5629C142.237 8.34441 138.972 6.96774 136.603 6.96774C134.938 6.96774 133.593 7.80014 132.601 8.76061V8.1203C132.601 7.73611 132.408 7.35192 132.056 7.12782C131.768 6.90371 131.384 6.87169 131.032 6.96774L127.158 8.15231L126.454 8.34441C126.005 8.50448 125.717 8.88867 125.717 9.33689C125.717 9.62503 125.845 9.91317 126.069 10.1053L127.158 11.0657V20.7664L125.941 22.2071C125.813 22.3672 125.717 22.5593 125.717 22.7834C125.717 23.2636 126.133 23.6798 126.614 23.6798H133.145C133.625 23.6798 134.041 23.2636 134.041 22.7834C134.041 22.5593 133.945 22.3672 133.817 22.2071L132.601 20.7664V10.6495C133.273 9.7851 134.105 9.04875 134.97 9.04875C136.378 9.04875 136.795 10.3934 136.795 14.2032V20.7664L135.578 22.2071C135.45 22.3672 135.386 22.5593 135.386 22.7834C135.386 23.2636 135.77 23.6798 136.282 23.6798H142.782C143.262 23.6798 143.678 23.2636 143.678 22.7834C143.678 22.5593 143.614 22.3672 143.454 22.2071L142.237 20.7664Z" fill="white"/>
</svg>
