<svg width="120" height="20" viewBox="0 0 120 20" fill="none" xmlns="http://www.w3.org/2000/svg">
<path d="M7.0701 0.417168H0.747029C0.320155 0.417168 0 0.764003 0 1.1642C0 1.35095 0.0533592 1.51103 0.160078 1.64443L1.1739 2.87169V17.3054L0.160078 18.5059C0.0533592 18.6393 0 18.7994 0 18.9862C0 19.3864 0.320155 19.7332 0.747029 19.7332H6.16299C6.58986 19.7332 6.91002 19.3864 6.91002 18.9862C6.91002 18.7994 6.85666 18.6393 6.74994 18.5059L5.70944 17.3054V12.3163H7.0701C11.1788 12.3163 14.9139 11.0357 14.9139 6.36672C14.9139 1.69779 11.1788 0.417168 7.0701 0.417168ZM6.16299 10.1819C5.92287 10.1819 5.70944 9.99515 5.70944 9.75503V2.55154H6.16299C9.15111 2.55154 10.1116 3.88552 10.1116 6.36672C10.1116 8.84792 9.15111 10.1819 6.16299 10.1819Z" fill="#EA580C"/>
<path d="M28.4699 15.0109C28.1764 14.8508 27.8029 14.9309 27.6161 15.171C27.0558 15.838 25.8819 17.0119 24.1744 17.0119C22.2268 17.0119 20.9462 15.918 20.1725 14.504L28.0697 11.5959L28.0963 11.5692C28.4965 11.4358 28.71 10.9823 28.5766 10.5821C27.4827 7.24715 25.1883 5.77977 22.6804 5.77977C18.4116 5.77977 15.4502 8.74121 15.4502 12.9032C15.4502 17.0652 18.1448 20 22.4136 20C26.2821 20 28.123 17.252 28.79 15.9447C28.9768 15.5979 28.8167 15.171 28.4699 15.0109ZM20.7328 7.59398C22.0134 7.16711 23.5341 8.18093 24.708 11.2491L19.6389 13.1433C18.9452 10.7422 19.4255 8.04754 20.7328 7.59398Z" fill="#EA580C"/>
<path d="M39.0869 17.172C38.8734 16.9318 38.4999 16.9052 38.2064 17.0919C37.9663 17.252 37.6462 17.3854 37.2993 17.3854C36.4189 17.3854 35.992 16.7184 35.992 15.7579V7.24715L38.0197 7.27383C38.4199 7.27383 38.74 6.95367 38.74 6.5268C38.74 6.1266 38.4199 5.80645 38.0197 5.80645L35.992 5.77977C35.992 4.09895 35.992 2.87169 35.992 2.87169C35.992 2.6049 35.8586 2.36478 35.6185 2.25806C35.3251 2.12466 34.9782 2.23138 34.7915 2.4715C34.1778 3.32524 32.9506 4.68591 30.5227 5.56633C30.2026 5.69973 29.9625 6.01988 29.9625 6.36672C29.9625 6.84695 30.3626 7.22047 30.8162 7.24715H31.4565V16.665C31.4565 18.8795 33.1106 20 34.6314 20C36.8458 20 38.3665 18.8261 39.0869 18.1324C39.3537 17.8923 39.3537 17.4654 39.1136 17.1986L39.0869 17.172Z" fill="#EA580C"/>
<path d="M53.1439 15.0109C52.8237 14.8508 52.4769 14.9309 52.2635 15.171C51.7032 15.838 50.5293 17.0119 48.8218 17.0119C43.3792 17.0119 43.059 7.46058 46.1005 7.46058C47.061 7.46058 47.9147 8.1009 48.8485 10.4754C49.302 11.676 50.636 12.2629 51.8099 11.8094C53.2506 11.3024 53.8109 9.54159 52.9305 8.31433C51.6232 6.47344 49.6489 5.77977 47.3544 5.77977C43.059 5.77977 40.0976 8.74121 40.0976 12.9032C40.0976 17.0652 42.7922 20 47.0876 20C50.9295 20 52.7971 17.252 53.4374 15.9447C53.6241 15.5979 53.4907 15.171 53.1439 15.0109Z" fill="#EA580C"/>
<path d="M67.9961 17.3054V11.1157C67.9961 7.03371 65.3281 5.77977 61.673 5.77977C59.5653 5.77977 57.4043 6.55348 56.2571 8.12757C55.4033 9.24812 56.2304 10.8489 57.6444 10.8489C58.4982 10.8489 59.2185 10.2086 59.3252 9.38152C59.512 8.1009 59.9922 6.98035 61.2195 6.98035C62.3667 6.98035 63.4606 7.91414 63.4606 10.3953V11.2491C60.9527 11.5692 54.8964 12.7698 54.8964 16.4516C54.8964 18.7994 56.8174 20 59.2452 20C61.006 20 62.4734 19.0929 63.5139 18.1858C63.674 19.0662 64.4744 19.7332 65.4082 19.7332H68.4497C68.8499 19.7332 69.1967 19.3864 69.1967 18.9862C69.1967 18.7994 69.1433 18.6393 69.0099 18.5059L67.9961 17.3054ZM59.6987 15.9981C59.6987 13.6236 61.7798 12.6631 63.4606 12.3963V16.7451C62.8203 17.3587 61.9932 17.919 61.2195 17.919C60.179 17.919 59.6987 17.2787 59.6987 15.9981Z" fill="#EA580C"/>
<path d="M79.3929 17.172C79.1794 16.9318 78.8059 16.9052 78.5125 17.0919C78.2723 17.252 77.9522 17.3854 77.6053 17.3854C76.7249 17.3854 76.2981 16.7184 76.2981 15.7579V7.24715L78.3257 7.27383C78.7259 7.27383 79.046 6.95367 79.046 6.5268C79.046 6.1266 78.7259 5.80645 78.3257 5.80645L76.2981 5.77977C76.2981 4.09895 76.2981 2.87169 76.2981 2.87169C76.2981 2.6049 76.1647 2.36478 75.9245 2.25806C75.6311 2.12466 75.2842 2.23138 75.0975 2.4715C74.4838 3.32524 73.2566 4.68591 70.8287 5.56633C70.5086 5.69973 70.2685 6.01988 70.2685 6.36672C70.2685 6.84695 70.6687 7.22047 71.1222 7.24715H71.7625V16.665C71.7625 18.8795 73.4167 20 74.9374 20C77.1518 20 78.6725 18.8261 79.3929 18.1324C79.6597 17.8923 79.6597 17.4654 79.4196 17.1986L79.3929 17.172Z" fill="#EA580C"/>
<path d="M86.4263 17.3054V6.76691C86.4263 6.44676 86.2662 6.1266 85.9727 5.93985C85.7326 5.75309 85.4125 5.72641 85.119 5.80645L81.8908 6.79359L81.3038 6.95367C80.9303 7.08707 80.6902 7.40722 80.6902 7.78074C80.6902 8.02086 80.7969 8.26097 80.9837 8.42105L81.8908 9.22144V17.3054L80.8769 18.5059C80.7435 18.6393 80.6902 18.7994 80.6902 18.9862C80.6902 19.3864 81.037 19.7332 81.4372 19.7332H86.8532C87.28 19.7332 87.6002 19.3864 87.6002 18.9862C87.6002 18.7994 87.5468 18.6393 87.4401 18.5059L86.4263 17.3054ZM84.452 4.9527C85.9194 4.60587 86.8265 3.24521 86.533 1.91123C86.2129 0.550566 84.7722 -0.249823 83.3315 0.0703327C81.8641 0.417168 80.957 1.77783 81.2771 3.13849C81.5706 4.47247 83.0113 5.29954 84.452 4.9527Z" fill="#EA580C"/>
<path d="M96.1796 5.77977C91.9108 5.77977 88.9494 8.74121 88.9494 12.9032C88.9494 17.0652 91.9108 20 96.1796 20C100.475 20 103.436 17.0652 103.436 12.9032C103.436 8.74121 100.475 5.77977 96.1796 5.77977ZM97.1667 18.4526C95.5659 18.7461 94.4988 17.3587 93.7784 13.3301C93.0581 9.30148 93.5916 7.62066 95.1924 7.35387C96.8199 7.06039 97.8871 8.44773 98.6074 12.4764C99.3011 16.505 98.7942 18.1591 97.1667 18.4526Z" fill="#EA580C"/>
<path d="M118.531 17.3054V11.3024C118.531 6.95367 115.81 5.80645 113.835 5.80645C112.448 5.80645 111.328 6.50012 110.5 7.30051V6.76691C110.5 6.44676 110.34 6.1266 110.047 5.93985C109.807 5.75309 109.487 5.72641 109.193 5.80645L105.965 6.79359L105.378 6.95367C105.004 7.08707 104.764 7.40722 104.764 7.78074C104.764 8.02086 104.871 8.26097 105.058 8.42105L105.965 9.22144V17.3054L104.951 18.5059C104.844 18.6393 104.764 18.7994 104.764 18.9862C104.764 19.3864 105.111 19.7332 105.511 19.7332H110.954C111.354 19.7332 111.701 19.3864 111.701 18.9862C111.701 18.7994 111.621 18.6393 111.514 18.5059L110.5 17.3054V8.8746C111.061 8.15425 111.754 7.54062 112.475 7.54062C113.649 7.54062 113.996 8.66117 113.996 11.836V17.3054L112.982 18.5059C112.875 18.6393 112.822 18.7994 112.822 18.9862C112.822 19.3864 113.142 19.7332 113.569 19.7332H118.985C119.385 19.7332 119.732 19.3864 119.732 18.9862C119.732 18.7994 119.678 18.6393 119.545 18.5059L118.531 17.3054Z" fill="#EA580C"/>
</svg>
