<svg width="24" height="24" viewBox="0 0 24 24" fill="none" xmlns="http://www.w3.org/2000/svg">
<path fill-rule="evenodd" clip-rule="evenodd" d="M3 9.10843C3 4.07798 7.07798 0 12.1084 0C17.1389 0 21.2169 4.07798 21.2169 9.10843V22.4193C21.2169 23.2923 20.5092 24 19.6361 24H4.58072C3.70771 24 3 23.2923 3 22.4193V9.10843ZM12.1084 1.3494C7.82324 1.3494 4.3494 4.82324 4.3494 9.10843V22.4193C4.3494 22.547 4.45297 22.6506 4.58072 22.6506H19.6361C19.7639 22.6506 19.8675 22.547 19.8675 22.4193V9.10843C19.8675 4.82324 16.3936 1.3494 12.1084 1.3494Z" fill="black"/>
<path fill-rule="evenodd" clip-rule="evenodd" d="M8.49399 13.2049C8.49399 13.5775 8.19192 13.8795 7.81929 13.8795H6.75905C6.38642 13.8795 6.08435 13.5775 6.08435 13.2049V13.2049C6.08435 12.8322 6.38642 12.5302 6.75905 12.5302H7.81929C8.19192 12.5302 8.49399 12.8322 8.49399 13.2049V13.2049Z" fill="black"/>
</svg>
